<svg xmlns="http://www.w3.org/2000/svg" viewBox="0 0 1066.72 211.51"><title>goodfellow.</title><path fill="#0d0f14" d="M62.49 203.51Q41.11 203.51 27.92 195.6Q14.74 187.69 11.81 174.89L41.4 168.84Q42.86 173.23 47.99 176.51Q53.12 179.78 62.3 179.78Q72.75 179.78 78.36 175.09Q83.98 170.4 83.98 160.64V141.3H81.34Q78.31 148.72 71.13 153.8Q63.96 158.88 51.75 158.88Q39.74 158.88 29.83 153.26Q19.91 147.65 13.96 135.88Q8 124.11 8 105.75Q8 86.61 14.1 74.21Q20.21 61.81 30.17 55.8Q40.13 49.8 51.65 49.8Q64.64 49.8 72.21 56.14Q79.78 62.49 82.9 69.91H83.88V51.16H117.57V157.9Q117.57 172.94 110.59 183.1Q103.61 193.25 91.2 198.38Q78.8 203.51 62.49 203.51ZM63.37 133.88Q73.14 133.88 78.56 126.41Q83.98 118.94 83.98 105.66Q83.98 92.18 78.61 84.32Q73.23 76.46 63.37 76.46Q53.51 76.46 48.28 84.46Q43.06 92.47 43.06 105.66Q43.06 118.84 48.33 126.36Q53.61 133.88 63.37 133.88ZM181.71 162.39Q164.62 162.39 152.32 155.31Q140.02 148.23 133.42 135.59Q126.83 122.94 126.83 106.14Q126.83 89.35 133.42 76.65Q140.02 63.96 152.32 56.88Q164.62 49.8 181.71 49.8Q198.8 49.8 211.06 56.88Q223.32 63.96 229.91 76.65Q236.5 89.35 236.5 106.14Q236.5 122.94 229.91 135.59Q223.32 148.23 211.06 155.31Q198.8 162.39 181.71 162.39ZM181.71 136.32Q191.48 136.32 196.66 127.97Q201.83 119.62 201.83 105.95Q201.83 92.28 196.66 84.07Q191.48 75.87 181.71 75.87Q171.95 75.87 166.77 84.07Q161.6 92.28 161.6 105.95Q161.6 119.62 166.77 127.97Q171.95 136.32 181.71 136.32ZM296.54 162.39Q279.45 162.39 267.15 155.31Q254.84 148.23 248.25 135.59Q241.66 122.94 241.66 106.14Q241.66 89.35 248.25 76.65Q254.84 63.96 267.15 56.88Q279.45 49.8 296.54 49.8Q313.63 49.8 325.89 56.88Q338.14 63.96 344.74 76.65Q351.33 89.35 351.33 106.14Q351.33 122.94 344.74 135.59Q338.14 148.23 325.89 155.31Q313.63 162.39 296.54 162.39ZM296.54 136.32Q306.31 136.32 311.48 127.97Q316.66 119.62 316.66 105.95Q316.66 92.28 311.48 84.07Q306.31 75.87 296.54 75.87Q286.78 75.87 281.6 84.07Q276.43 92.28 276.43 105.95Q276.43 119.62 281.6 127.97Q286.78 136.32 296.54 136.32ZM400.24 161.91Q388.13 161.91 378.17 155.61Q368.21 149.31 362.35 136.86Q356.49 124.41 356.49 105.85Q356.49 86.71 362.59 74.31Q368.7 61.91 378.61 55.85Q388.52 49.8 399.95 49.8Q408.64 49.8 414.79 52.78Q420.94 55.75 424.9 60.39Q428.85 65.03 430.9 69.91H431.68V14.84H465.67V160.34H432.07V142.67H430.9Q427.68 150.09 420.21 156Q412.74 161.91 400.24 161.91ZM411.86 135.34Q421.53 135.34 427 127.29Q432.46 119.23 432.46 105.85Q432.46 92.28 427.04 84.37Q421.62 76.46 411.86 76.46Q402 76.46 396.77 84.51Q391.55 92.57 391.55 105.85Q391.55 119.13 396.77 127.24Q402 135.34 411.86 135.34ZM544.07 51.16V76.46H522.2V160.34H488.31V76.46H469.95V51.16H488.31V45.3Q488.31 26.55 498.66 17.28Q509.01 8 525.42 8Q532.64 8 538.99 9.12Q545.34 10.25 548.37 11.12L542.9 36.03Q540.95 35.54 538.31 35.1Q535.67 34.66 533.04 34.66Q526.98 34.66 524.59 37.44Q522.2 40.23 522.2 45.01V51.16ZM599.43 162.39Q573.74 162.39 559.04 147.4Q544.35 132.41 544.35 106.14Q544.35 89.35 550.94 76.65Q557.53 63.96 569.64 56.88Q581.75 49.8 598.16 49.8Q613.49 49.8 625.35 56.19Q637.22 62.59 644.01 75.04Q650.79 87.49 650.79 105.46V114.05H577.84Q578.33 125.87 584.34 131.78Q590.34 137.69 600.01 137.69Q606.85 137.69 611.83 134.81Q616.81 131.93 618.86 126.46L649.23 131.44Q645.13 145.6 632.19 154Q619.25 162.39 599.43 162.39ZM578.04 94.23H618.47Q617.49 84.95 612.41 79.73Q607.34 74.5 598.45 74.5Q589.46 74.5 584.24 79.83Q579.02 85.15 578.04 94.23ZM693.75 14.84V160.34H659.66V14.84ZM741.39 14.84V160.34H707.3V14.84ZM805.63 162.39Q788.54 162.39 776.23 155.31Q763.93 148.23 757.34 135.59Q750.75 122.94 750.75 106.14Q750.75 89.35 757.34 76.65Q763.93 63.96 776.23 56.88Q788.54 49.8 805.63 49.8Q822.72 49.8 834.97 56.88Q847.23 63.96 853.82 76.65Q860.41 89.35 860.41 106.14Q860.41 122.94 853.82 135.59Q847.23 148.23 834.97 155.31Q822.72 162.39 805.63 162.39ZM805.63 136.32Q815.39 136.32 820.57 127.97Q825.75 119.62 825.75 105.95Q825.75 92.28 820.57 84.07Q815.39 75.87 805.63 75.87Q795.86 75.87 790.69 84.07Q785.51 92.28 785.51 105.95Q785.51 119.62 790.69 127.97Q795.86 136.32 805.63 136.32ZM889.5 160.34 857.66 51.16H893.31L901.32 88.57Q903.17 97.84 905.32 108.2Q907.47 118.55 909.52 130.36Q911.67 118.64 914.11 108.24Q916.55 97.84 918.7 88.57L927.39 51.16H957.66L966.06 88.57Q968.11 97.94 970.55 108.29Q973 118.64 975.24 130.56Q977.1 118.74 979.15 108.34Q981.2 97.94 983.15 88.57L991.06 51.16H1027.29L995.16 160.34H960.4L949.07 121.18Q947.41 115.23 945.7 107.07Q943.99 98.92 942.33 91.01Q940.67 98.92 939.01 107.07Q937.35 115.23 935.59 121.18L924.27 160.34Z"/><path fill="#f5a524" d="M1040.27 162.39Q1032.45 162.39 1027.13 157.17Q1021.81 151.95 1021.81 144.23Q1021.81 136.42 1027.13 131.19Q1032.45 125.97 1040.27 125.97Q1048.08 125.97 1053.4 131.19Q1058.72 136.42 1058.72 144.23Q1058.72 151.95 1053.4 157.17Q1048.08 162.39 1040.27 162.39Z"/></svg>
